<svg width="175" height="122" viewBox="0 0 175 122" fill="none" xmlns="http://www.w3.org/2000/svg">
<path d="M5.87052 112.926C9.91352 115.469 14.7468 115.93 19.0103 116.336C47.3571 119.051 76.3053 121.822 105.273 121.822C116.976 121.822 159.86 120.875 169.469 114.283C173.014 111.849 176.132 106.968 174.6 102.008C173.3 97.7877 169.071 93.9967 159.052 93.9165C159.111 93.7246 159.128 93.5225 159.102 93.3235C159.077 93.1245 159.009 92.9333 158.903 92.7626C158.804 92.6033 158.674 92.4651 158.521 92.356C158.369 92.2468 158.196 92.1689 158.013 92.1266C157.83 92.0843 157.64 92.0785 157.455 92.1096C157.27 92.1406 157.093 92.2078 156.933 92.3073L156.813 92.3818C158.417 68.1782 158.448 43.6596 156.908 19.4531C156.054 6.10714 152.08 -0.0948031 133.423 0.137126L49.2126 1.35117C27.1536 1.66614 16.774 6.82011 17.6588 27.8941L20.4248 93.3066C19.1248 93.3038 17.8249 93.2923 16.5249 93.2923C-4.20264 93.3639 -2.33862 107.769 5.87052 112.926ZM100.466 115.011L104.137 118.681C104.091 118.77 104.034 118.853 104.025 118.951C101.583 118.945 99.1403 118.925 96.6979 118.879L96.6492 118.83L100.466 115.011ZM112.526 118.888C110.493 118.922 108.46 118.939 106.425 118.945L106.104 118.624L109.311 115.417L112.652 118.759L112.526 118.888ZM84.8437 118.518L86.1408 117.221L87.5524 118.633C86.6505 118.601 85.7485 118.555 84.8437 118.518ZM90.3041 118.71L92.4057 116.608L94.6219 118.825C93.1817 118.793 91.7443 118.753 90.3041 118.71ZM114.591 118.85L117.342 116.099L119.931 118.687C118.15 118.75 116.372 118.81 114.591 118.85ZM132.515 111.881L135.825 115.191L133.025 117.991C132.352 118.04 131.682 118.106 131.009 118.149L128.627 115.767L132.515 111.881ZM143.556 117.055C142.399 117.175 141.242 117.313 140.083 117.422L137.852 115.191L142.909 110.132L146.694 113.917L143.556 117.055ZM147.705 114.928L149.205 116.425C148.077 116.565 146.949 116.688 145.818 116.814L147.705 114.928ZM138.219 117.582C137.22 117.671 136.223 117.739 135.224 117.817L136.839 116.202L138.219 117.582ZM129.091 118.252C128.054 118.315 127.018 118.364 125.978 118.418L127.616 116.78L129.091 118.252ZM150.989 116.185L148.719 113.914L153.059 109.573L158.586 115.099C155.719 115.589 155.038 115.661 150.989 116.185ZM160.123 114.819C160.095 114.696 160.075 114.567 159.977 114.469L154.07 108.562L158.743 103.889C158.766 103.918 158.757 103.958 158.783 103.984L160.392 105.593L157.291 108.694C157.225 108.761 157.172 108.84 157.136 108.927C157.1 109.014 157.081 109.107 157.081 109.201C157.081 109.295 157.1 109.388 157.136 109.475C157.172 109.562 157.225 109.641 157.291 109.708C157.358 109.774 157.437 109.827 157.524 109.863C157.611 109.899 157.704 109.918 157.798 109.918C157.892 109.918 157.986 109.899 158.072 109.863C158.159 109.827 158.238 109.774 158.305 109.708L161.406 106.607L164.682 109.882L164.098 110.467C164.031 110.533 163.978 110.612 163.942 110.699C163.906 110.786 163.888 110.879 163.888 110.973C163.888 111.067 163.906 111.161 163.942 111.248C163.978 111.335 164.031 111.414 164.098 111.48C164.164 111.547 164.243 111.599 164.33 111.635C164.417 111.672 164.51 111.69 164.604 111.69C164.698 111.69 164.792 111.672 164.879 111.635C164.966 111.599 165.045 111.547 165.111 111.48L165.695 110.896L166.234 111.434C166.368 111.569 166.55 111.644 166.74 111.644C166.93 111.644 167.113 111.569 167.247 111.434C167.382 111.3 167.457 111.118 167.457 110.927C167.457 110.737 167.382 110.555 167.247 110.421L166.709 109.882L169.483 107.108L169.681 107.305C169.747 107.374 169.826 107.428 169.914 107.465C170.001 107.503 170.095 107.522 170.19 107.523C170.285 107.524 170.379 107.506 170.467 107.469C170.555 107.433 170.635 107.38 170.702 107.313C170.769 107.245 170.822 107.166 170.858 107.077C170.894 106.989 170.912 106.895 170.911 106.8C170.91 106.705 170.89 106.611 170.852 106.524C170.815 106.437 170.76 106.358 170.692 106.292L170.494 106.094L172.106 104.482C172.189 108.479 169.151 113.021 160.123 114.819ZM162.414 105.593L165.188 102.819L168.464 106.094L165.69 108.869L162.414 105.593ZM171.866 102.856C171.912 103.008 171.917 103.162 171.952 103.314C171.685 103.188 171.376 103.182 171.156 103.403L169.475 105.083L166.202 101.808L166.992 101.018C167.061 100.951 167.115 100.872 167.152 100.785C167.19 100.698 167.209 100.604 167.21 100.509C167.211 100.414 167.193 100.319 167.156 100.231C167.12 100.143 167.067 100.064 167 99.9965C166.932 99.9294 166.852 99.8764 166.764 99.8405C166.676 99.8046 166.582 99.7867 166.487 99.7876C166.392 99.7886 166.298 99.8084 166.211 99.8461C166.124 99.8837 166.045 99.9383 165.979 100.007L165.188 100.797L164.667 100.276C164.601 100.209 164.522 100.157 164.435 100.121C164.348 100.085 164.255 100.066 164.161 100.066C164.066 100.066 163.973 100.085 163.886 100.121C163.799 100.157 163.72 100.209 163.654 100.276C163.587 100.343 163.534 100.422 163.498 100.508C163.462 100.595 163.444 100.689 163.444 100.783C163.444 100.877 163.462 100.97 163.498 101.057C163.534 101.144 163.587 101.223 163.654 101.29L164.175 101.811L161.4 104.585L159.791 102.976C159.718 102.906 159.631 102.852 159.535 102.819C159.438 102.787 159.336 102.776 159.236 102.787C159.201 102.69 159.196 102.581 159.118 102.504C159.052 102.437 158.973 102.384 158.886 102.348C158.799 102.312 158.706 102.293 158.611 102.293C158.517 102.293 158.424 102.312 158.337 102.348C158.25 102.384 158.171 102.437 158.105 102.504L153.054 107.555L150.912 105.413C150.778 105.278 150.595 105.203 150.405 105.203C150.215 105.203 150.033 105.278 149.898 105.413C149.764 105.547 149.688 105.729 149.688 105.92C149.688 106.11 149.764 106.292 149.898 106.426L152.04 108.568L147.699 112.909L143.914 109.124L145.87 107.165C145.936 107.099 145.989 107.02 146.025 106.933C146.061 106.846 146.08 106.752 146.08 106.658C146.08 106.564 146.061 106.471 146.025 106.384C145.989 106.297 145.936 106.218 145.87 106.151C145.803 106.085 145.724 106.032 145.637 105.996C145.55 105.96 145.457 105.942 145.363 105.942C145.269 105.942 145.176 105.96 145.089 105.996C145.002 106.032 144.923 106.085 144.856 106.151L142.9 108.11L142.814 108.024C142.748 107.958 142.669 107.905 142.582 107.869C142.495 107.833 142.402 107.814 142.308 107.814C142.214 107.814 142.12 107.833 142.033 107.869C141.946 107.905 141.867 107.958 141.801 108.024C141.734 108.091 141.682 108.17 141.645 108.257C141.609 108.344 141.591 108.437 141.591 108.531C141.591 108.625 141.609 108.718 141.645 108.805C141.682 108.892 141.734 108.971 141.801 109.038L141.887 109.124L136.83 114.183L133.52 110.873L135.261 109.132C135.329 109.066 135.384 108.987 135.421 108.9C135.458 108.812 135.478 108.718 135.479 108.623C135.479 108.528 135.461 108.434 135.425 108.346C135.389 108.258 135.336 108.178 135.268 108.111C135.201 108.044 135.121 107.991 135.033 107.955C134.945 107.919 134.851 107.901 134.756 107.902C134.661 107.903 134.567 107.923 134.48 107.961C134.392 107.998 134.313 108.053 134.247 108.121L127.607 114.761L124.406 111.56C124.272 111.426 124.089 111.35 123.899 111.35C123.709 111.35 123.527 111.426 123.393 111.56C123.258 111.695 123.183 111.877 123.183 112.067C123.183 112.257 123.258 112.439 123.393 112.574L126.594 115.775L123.839 118.532C123.192 118.561 122.542 118.601 121.895 118.627L118.353 115.085L123.135 110.306C123.201 110.24 123.254 110.161 123.29 110.074C123.326 109.987 123.345 109.893 123.345 109.799C123.345 109.705 123.326 109.612 123.29 109.525C123.254 109.438 123.201 109.359 123.135 109.293C123.068 109.226 122.989 109.173 122.902 109.137C122.815 109.101 122.722 109.083 122.628 109.083C122.534 109.083 122.441 109.101 122.354 109.137C122.267 109.173 122.188 109.226 122.121 109.293L117.34 114.071L115.702 112.434C115.635 112.367 115.556 112.314 115.469 112.278C115.382 112.242 115.289 112.224 115.195 112.224C115.101 112.224 115.008 112.242 114.921 112.278C114.834 112.314 114.755 112.367 114.688 112.434C114.622 112.5 114.569 112.579 114.533 112.666C114.497 112.753 114.478 112.846 114.478 112.94C114.478 113.035 114.497 113.128 114.533 113.215C114.569 113.302 114.622 113.381 114.688 113.447L116.323 115.085L113.66 117.748L110.319 114.406L113.964 110.764C114.03 110.698 114.083 110.619 114.119 110.532C114.155 110.445 114.174 110.352 114.174 110.257C114.174 110.163 114.155 110.07 114.119 109.983C114.083 109.896 114.03 109.817 113.964 109.751C113.897 109.684 113.818 109.631 113.731 109.595C113.644 109.559 113.551 109.541 113.457 109.541C113.363 109.541 113.27 109.559 113.183 109.595C113.096 109.631 113.017 109.684 112.95 109.751L109.308 113.393L108.154 112.233C108.02 112.099 107.837 112.023 107.647 112.023C107.457 112.023 107.275 112.099 107.14 112.233C107.006 112.368 106.93 112.55 106.93 112.74C106.93 112.93 107.006 113.112 107.14 113.247L108.3 114.406L105.093 117.613L101.477 113.997L103.504 111.97C103.571 111.903 103.623 111.824 103.659 111.737C103.695 111.65 103.714 111.557 103.714 111.463C103.714 111.369 103.695 111.276 103.659 111.189C103.623 111.102 103.571 111.023 103.504 110.956C103.437 110.89 103.358 110.837 103.271 110.801C103.184 110.765 103.091 110.746 102.997 110.746C102.903 110.746 102.81 110.765 102.723 110.801C102.636 110.837 102.557 110.89 102.49 110.956L100.323 113.124C100.224 113.117 100.125 113.131 100.033 113.165C99.9398 113.199 99.8553 113.252 99.7845 113.321C99.7155 113.392 99.6623 113.477 99.6282 113.569C99.5942 113.662 99.5801 113.761 99.5869 113.86L95.6298 117.817L93.4108 115.598L96.4917 112.514C96.5583 112.447 96.611 112.368 96.6471 112.281C96.6831 112.194 96.7016 112.101 96.7016 112.007C96.7016 111.913 96.6831 111.82 96.6471 111.733C96.611 111.646 96.5583 111.567 96.4917 111.5C96.4251 111.434 96.3461 111.381 96.2592 111.345C96.1722 111.309 96.079 111.29 95.9849 111.29C95.8908 111.29 95.7976 111.309 95.7106 111.345C95.6236 111.381 95.5446 111.434 95.4781 111.5L92.3971 114.584L92.1538 114.341C92.0872 114.274 92.0082 114.221 91.9212 114.185C91.8343 114.149 91.7411 114.131 91.6469 114.131C91.5528 114.131 91.4596 114.149 91.3727 114.185C91.2857 114.221 91.2067 114.274 91.1402 114.341C91.0736 114.407 91.0208 114.486 90.9848 114.573C90.9488 114.66 90.9302 114.753 90.9302 114.847C90.9302 114.942 90.9488 115.035 90.9848 115.122C91.0208 115.209 91.0736 115.288 91.1402 115.354L91.3835 115.598L88.9583 118.023L87.1458 116.21L89.9977 113.361C90.1321 113.227 90.2076 113.045 90.2076 112.855C90.2076 112.664 90.1321 112.482 89.9977 112.348C89.8633 112.213 89.681 112.138 89.4909 112.138C89.3008 112.138 89.1185 112.213 88.9841 112.348L86.1322 115.197L84.1222 113.187C83.9877 113.052 83.8054 112.977 83.6153 112.977C83.4253 112.977 83.243 113.052 83.1085 113.187C82.9741 113.321 82.8986 113.503 82.8986 113.693C82.8986 113.884 82.9741 114.066 83.1085 114.2L85.1186 116.21L83.1085 118.22C83.0484 118.281 83.0513 118.369 83.0169 118.444C81.8916 118.395 80.7663 118.355 79.6411 118.303L78.742 117.404L84.0821 112.064C84.2165 111.93 84.292 111.748 84.292 111.557C84.292 111.367 84.2165 111.185 84.0821 111.051C83.9477 110.916 83.7654 110.841 83.5753 110.841C83.3852 110.841 83.2029 110.916 83.0685 111.051L77.7284 116.391L74.6646 113.324C74.5981 113.258 74.519 113.205 74.4321 113.169C74.3451 113.133 74.2519 113.114 74.1578 113.114C74.0637 113.114 73.9705 113.133 73.8835 113.169C73.7966 113.205 73.7176 113.258 73.651 113.324C73.5844 113.391 73.5316 113.47 73.4956 113.557C73.4596 113.644 73.4411 113.737 73.4411 113.831C73.4411 113.925 73.4596 114.018 73.4956 114.105C73.5316 114.192 73.5844 114.271 73.651 114.338L76.7148 117.404L76.0075 118.112C56.9521 117.089 37.9798 115.283 19.2708 113.49C15.3223 113.112 10.8527 112.686 7.37949 110.504C1.70439 106.945 -1.3794 96.1585 16.2787 96.1585H16.5106C56.5942 96.1585 113.926 97.0232 157.114 96.7856C160.627 96.7598 169.884 96.4334 171.866 102.856ZM97.3335 89.1233C97.3564 89.2636 97.3879 89.4097 97.4967 89.5156L101.07 93.0862L100.363 93.7934L96.2225 93.7619C96.3915 93.487 96.4001 93.1377 96.1624 92.8972L94.8596 91.5944L97.3335 89.1233ZM119.415 85.3924L122.012 87.9895L118.161 91.8406L115.564 89.2436L119.415 85.3924ZM129.534 82.4919L134.247 87.2049L131.851 89.6015C131.782 89.6674 131.728 89.7464 131.69 89.8336C131.652 89.9209 131.633 90.0148 131.632 90.1099C131.631 90.2049 131.649 90.2992 131.685 90.3872C131.72 90.4752 131.773 90.5552 131.841 90.6225C131.908 90.6898 131.987 90.7431 132.075 90.7792C132.163 90.8153 132.258 90.8336 132.353 90.8329C132.448 90.8322 132.542 90.8126 132.629 90.7752C132.716 90.7378 132.795 90.6834 132.862 90.6151L135.258 88.2185L139.945 92.9058C140.08 93.0402 140.262 93.1157 140.452 93.1157C140.642 93.1157 140.825 93.0402 140.959 92.9058C141.093 92.7714 141.169 92.5891 141.169 92.399C141.169 92.2089 141.093 92.0266 140.959 91.8922L136.272 87.2049L140.75 82.7267L146.013 87.9895L142.52 91.4827C142.453 91.5493 142.4 91.6283 142.364 91.7152C142.328 91.8022 142.31 91.8954 142.31 91.9895C142.31 92.0836 142.328 92.1768 142.364 92.2638C142.4 92.3508 142.453 92.4298 142.52 92.4963C142.586 92.5629 142.665 92.6157 142.752 92.6517C142.839 92.6877 142.932 92.7062 143.026 92.7062C143.12 92.7062 143.214 92.6877 143.301 92.6517C143.388 92.6157 143.467 92.5629 143.533 92.4963L147.026 89.0031L151.759 93.7361C151.887 93.8584 152.055 93.9279 152.232 93.9308C144.501 93.9595 136.756 93.9595 129.005 93.9366C129.132 93.803 129.202 93.6253 129.2 93.4409C129.199 93.2566 129.125 93.0801 128.996 92.9487L124.037 87.9923L129.534 82.4919ZM153.747 84.9114L152.432 83.5971L154.494 81.5355C154.299 85.6702 154.107 89.8048 153.821 93.9251L152.298 93.928C152.474 93.9237 152.642 93.8543 152.77 93.7333C152.837 93.6668 152.89 93.5878 152.926 93.5008C152.962 93.4139 152.981 93.3206 152.981 93.2265C152.981 93.1323 152.962 93.0391 152.926 92.9521C152.89 92.8651 152.837 92.7861 152.77 92.7197L148.037 87.9866L151.419 84.6079L152.733 85.9221C152.868 86.0527 153.049 86.1252 153.236 86.1238C153.424 86.1224 153.604 86.0474 153.737 85.9149C153.869 85.7823 153.945 85.6029 153.947 85.4152C153.949 85.2275 153.877 85.0466 153.747 84.9114ZM155.072 62.0822L152.472 59.4823C152.455 59.4651 152.429 59.4708 152.412 59.4565L155.164 56.7077C155.158 58.5001 155.095 60.2897 155.072 62.0822ZM127.954 93.9337C124.821 93.9251 121.692 93.9194 118.565 93.9022C118.735 93.8974 118.897 93.8301 119.02 93.7132C119.241 93.4928 119.238 93.1806 119.109 92.9144L123.023 89.0002L127.954 93.9337ZM117.466 93.1692C117.597 93.5185 117.494 93.4154 117.843 93.5472C118.058 93.7648 118.141 93.8764 118.465 93.9022C115.954 93.8908 113.454 93.8736 110.949 93.8593L114.551 90.2572L117.466 93.1692ZM103.043 93.1377L105.454 90.7268L108.572 93.8449L103.04 93.8134C103.102 93.7116 103.134 93.5949 103.135 93.476C103.135 93.357 103.104 93.2401 103.043 93.1377ZM94.9913 93.7533L92.7207 93.7361L93.8489 92.6109L94.9913 93.7533ZM20.5193 27.7739C19.686 8.15728 29.2667 4.50368 49.2498 4.21735L133.46 3.00331C150.482 2.73988 153.294 7.80509 154.047 19.6392C154.783 31.1955 155.115 42.8235 155.13 54.4543L153.288 52.6132L154.734 51.1672C154.869 51.0328 154.944 50.8505 154.944 50.6604C154.944 50.4703 154.869 50.288 154.734 50.1536C154.6 50.0192 154.418 49.9436 154.228 49.9436C154.038 49.9436 153.855 50.0192 153.721 50.1536L152.132 51.7456C152.036 51.7424 151.941 51.7589 151.852 51.794C151.763 51.8291 151.682 51.8822 151.614 51.9498C151.547 52.0175 151.494 52.0983 151.459 52.1873C151.423 52.2763 151.407 52.3715 151.41 52.4671L150.832 53.0455C150.759 53.1104 150.701 53.1894 150.66 53.2778C150.619 53.3661 150.596 53.4618 150.593 53.5592C150.591 53.6565 150.608 53.7534 150.644 53.8439C150.68 53.9343 150.734 54.0165 150.803 54.0854C150.872 54.1542 150.954 54.2083 151.044 54.2443C151.135 54.2803 151.232 54.2975 151.329 54.2948C151.426 54.292 151.522 54.2695 151.61 54.2285C151.699 54.1875 151.778 54.1289 151.843 54.0563L152.278 53.6211L154.248 55.591L151.147 58.692C151.08 58.7585 151.027 58.8375 150.991 58.9244C150.955 59.0114 150.936 59.1046 150.936 59.1988C150.936 59.2929 150.955 59.3862 150.991 59.4731C151.027 59.5601 151.08 59.6391 151.147 59.7056C151.198 59.7571 151.273 59.7514 151.333 59.7829C151.256 60.0292 151.264 60.2954 151.459 60.4901L154.769 63.7973C154.606 63.805 154.452 63.8688 154.331 63.9777L152.123 66.1853L150.276 64.3385C150.21 64.2702 150.131 64.2158 150.044 64.1784C149.956 64.141 149.862 64.1214 149.767 64.1207C149.672 64.12 149.578 64.1383 149.49 64.1744C149.402 64.2105 149.322 64.2638 149.255 64.3311C149.188 64.3984 149.135 64.4784 149.099 64.5664C149.063 64.6544 149.045 64.7487 149.046 64.8437C149.047 64.9388 149.067 65.0327 149.105 65.1199C149.142 65.2072 149.197 65.2861 149.266 65.3521L151.112 67.1989L150.208 68.1037C150.139 68.1696 150.084 68.2486 150.047 68.3358C150.009 68.4231 149.989 68.517 149.988 68.6121C149.987 68.7071 150.005 68.8014 150.041 68.8894C150.077 68.9774 150.13 69.0574 150.197 69.1247C150.264 69.192 150.344 69.2453 150.432 69.2814C150.52 69.3175 150.614 69.3358 150.709 69.3351C150.804 69.3344 150.898 69.3148 150.986 69.2774C151.073 69.24 151.152 69.1856 151.218 69.1173L152.126 68.2125L153.515 69.6012C153.649 69.7356 153.831 69.8112 154.021 69.8112C154.212 69.8112 154.394 69.7356 154.528 69.6012C154.663 69.4668 154.738 69.2845 154.738 69.0944C154.738 68.9043 154.663 68.722 154.528 68.5876L153.14 67.1989L155.009 65.3292C154.921 70.2426 154.792 75.1503 154.577 80.0523C154.325 79.9578 154.044 79.9607 153.838 80.1669L151.424 82.5807L149.927 81.0831L153.961 77.0516C154.133 76.8798 154.162 76.6479 154.122 76.4245L154.136 76.4188C154.203 76.3523 154.256 76.2733 154.292 76.1863C154.328 76.0994 154.346 76.0061 154.346 75.912C154.346 75.8178 154.328 75.7246 154.292 75.6376C154.256 75.5507 154.203 75.4717 154.136 75.4052L149.661 70.9298C149.594 70.8633 149.515 70.8105 149.428 70.7744C149.341 70.7384 149.248 70.7199 149.154 70.7199C149.06 70.7199 148.967 70.7384 148.88 70.7744C148.793 70.8105 148.714 70.8633 148.647 70.9298C148.58 70.9964 148.528 71.0754 148.492 71.1623C148.456 71.2493 148.437 71.3425 148.437 71.4366C148.437 71.5307 148.456 71.6239 148.492 71.7109C148.528 71.7979 148.58 71.8769 148.647 71.9434L152.848 76.1439L148.919 80.0724L146.68 77.8333C146.613 77.7667 146.534 77.7139 146.447 77.6779C146.36 77.6419 146.267 77.6233 146.173 77.6233C146.079 77.6233 145.986 77.6419 145.899 77.6779C145.812 77.7139 145.733 77.7667 145.666 77.8333C145.6 77.8998 145.547 77.9788 145.511 78.0658C145.475 78.1528 145.456 78.246 145.456 78.3401C145.456 78.4342 145.475 78.5274 145.511 78.6144C145.547 78.7013 145.6 78.7803 145.666 78.8469L148.223 81.4038C148.358 81.7532 148.249 81.6415 148.598 81.7789L150.417 83.5971L147.035 86.9758L141.772 81.7131L148.936 74.549C149.071 74.4146 149.146 74.2323 149.146 74.0422C149.146 73.8521 149.071 73.6698 148.936 73.5354C148.802 73.401 148.62 73.3255 148.429 73.3255C148.239 73.3255 148.057 73.401 147.923 73.5354L140.759 80.6995L137.735 77.6758C137.601 77.5414 137.418 77.4659 137.228 77.4659C137.038 77.4659 136.856 77.5414 136.721 77.6758C136.587 77.8102 136.511 77.9925 136.511 78.1826C136.511 78.3727 136.587 78.555 136.721 78.6894L139.742 81.7102L135.264 86.1884L130.551 81.4754L137.678 74.3486C137.746 74.2825 137.8 74.2034 137.838 74.116C137.875 74.0286 137.895 73.9347 137.895 73.8396C137.896 73.7446 137.878 73.6504 137.842 73.5624C137.806 73.4745 137.752 73.3947 137.685 73.3276C137.618 73.2605 137.538 73.2074 137.45 73.1716C137.362 73.1357 137.267 73.1177 137.172 73.1187C137.077 73.1196 136.983 73.1395 136.896 73.1771C136.809 73.2148 136.73 73.2694 136.664 73.3379L123.026 86.9758L120.429 84.3788L122.654 82.154C122.72 82.0875 122.773 82.0085 122.809 81.9215C122.845 81.8345 122.864 81.7413 122.864 81.6472C122.864 81.5531 122.845 81.4599 122.809 81.3729C122.773 81.286 122.72 81.207 122.654 81.1404C122.587 81.0739 122.508 81.0211 122.421 80.985C122.334 80.949 122.241 80.9305 122.147 80.9305C122.053 80.9305 121.96 80.949 121.873 80.985C121.786 81.0211 121.707 81.0739 121.64 81.1404L114.554 88.2271L112.784 86.4633C112.65 86.3289 112.467 86.2534 112.277 86.2534C112.087 86.2534 111.905 86.3289 111.77 86.4633C111.636 86.5977 111.56 86.78 111.56 86.9701C111.56 87.1602 111.636 87.3425 111.77 87.4769L113.54 89.2465L109.752 93.0346C109.737 93.0174 109.743 92.9945 109.729 92.9802L106.465 89.716L110.565 85.6158C110.631 85.5492 110.684 85.4702 110.72 85.3832C110.756 85.2963 110.775 85.2031 110.775 85.109C110.775 85.0148 110.756 84.9216 110.72 84.8347C110.684 84.7477 110.631 84.6687 110.565 84.6022C110.498 84.5356 110.419 84.4828 110.332 84.4468C110.245 84.4108 110.152 84.3922 110.058 84.3922C109.964 84.3922 109.871 84.4108 109.784 84.4468C109.697 84.4828 109.618 84.5356 109.551 84.6022L105.451 88.7024L104.936 88.187C104.869 88.1205 104.79 88.0677 104.703 88.0317C104.616 87.9956 104.523 87.9771 104.429 87.9771C104.335 87.9771 104.241 87.9956 104.155 88.0317C104.068 88.0677 103.989 88.1205 103.922 88.187C103.855 88.2536 103.803 88.3326 103.767 88.4196C103.731 88.5065 103.712 88.5997 103.712 88.6938C103.712 88.788 103.731 88.8812 103.767 88.9681C103.803 89.0551 103.855 89.1341 103.922 89.2006L104.437 89.716L102.078 92.0754L98.5046 88.5049C98.3958 88.396 98.2526 88.3674 98.1123 88.3417L99.6242 86.8298C99.6907 86.7633 99.7435 86.6842 99.7795 86.5973C99.8156 86.5103 99.8341 86.4171 99.8341 86.323C99.8341 86.2289 99.8156 86.1357 99.7795 86.0487C99.7435 85.9618 99.6907 85.8828 99.6242 85.8162C99.5576 85.7496 99.4786 85.6969 99.3916 85.6608C99.3047 85.6248 99.2115 85.6063 99.1174 85.6063C99.0232 85.6063 98.93 85.6248 98.8431 85.6608C98.7561 85.6969 98.6771 85.7496 98.6106 85.8162L93.8403 90.5865L92.3857 89.1319C92.3191 89.0654 92.2401 89.0126 92.1532 88.9766C92.0662 88.9405 91.973 88.922 91.8789 88.922C91.7848 88.922 91.6916 88.9405 91.6046 88.9766C91.5176 89.0126 91.4386 89.0654 91.3721 89.1319C91.3055 89.1985 91.2527 89.2775 91.2167 89.3644C91.1807 89.4514 91.1621 89.5446 91.1621 89.6387C91.1621 89.7328 91.1807 89.8261 91.2167 89.913C91.2527 90 91.3055 90.079 91.3721 90.1455L92.8267 91.6001L91.2146 93.2122C91.1472 93.2797 91.0943 93.3602 91.0588 93.4488C91.0234 93.5374 91.0063 93.6322 91.0084 93.7275C70.2837 93.5701 48.7544 93.404 23.2852 93.321L20.5193 27.7739Z" fill="black"/>
<path d="M46.9105 59.4107L60.159 59.1301L60.537 70.2971C60.5496 70.6683 60.706 71.02 60.9732 71.2781C61.2403 71.5361 61.5972 71.6803 61.9687 71.68H62.0173C62.3969 71.6666 62.7556 71.5032 63.0148 71.2257C63.274 70.9482 63.4127 70.5793 63.4003 70.1997L63.0224 59.0671L68.4942 58.9526C68.8739 58.9484 69.2364 58.7936 69.5019 58.5221C69.7674 58.2507 69.9142 57.8849 69.9101 57.5052C69.9059 57.1255 69.7511 56.763 69.4796 56.4975C69.2082 56.2319 68.8424 56.0851 68.4627 56.0893H68.4312L62.925 56.2038L61.9858 28.3953C61.975 28.1031 61.8755 27.8212 61.7006 27.5869C61.5257 27.3527 61.2836 27.1772 61.0066 27.0839C60.7291 26.9929 60.4306 26.9883 60.1504 27.0706C59.8703 27.1529 59.6217 27.3183 59.4375 27.5449L41.0235 50.4285C37.1437 55.2618 39.5117 59.5453 46.9105 59.4107ZM54.8791 37.7869L55.4575 38.3653L52.4653 41.3604L52.2105 41.1055L54.8791 37.7869ZM43.2597 52.2295L44.0901 51.1987L45.7308 52.8394L44.5196 54.0506C44.4511 54.1165 44.3965 54.1954 44.3589 54.2827C44.3212 54.37 44.3014 54.4639 44.3004 54.5589C44.2994 54.654 44.3174 54.7483 44.3533 54.8363C44.3892 54.9243 44.4422 55.0043 44.5093 55.0716C44.5764 55.1389 44.6563 55.1922 44.7442 55.2283C44.8321 55.2644 44.9263 55.2827 45.0214 55.282C45.1164 55.2813 45.2104 55.2617 45.2978 55.2243C45.3851 55.1869 45.4642 55.1325 45.5303 55.0642L46.7415 53.853L46.8417 53.9532C46.9083 54.0198 46.9873 54.0726 47.0743 54.1086C47.1612 54.1446 47.2544 54.1632 47.3486 54.1632C47.4427 54.1632 47.5359 54.1446 47.6228 54.1086C47.7098 54.0726 47.7888 54.0198 47.8554 53.9532C47.9219 53.8867 47.9747 53.8077 48.0107 53.7207C48.0468 53.6338 48.0653 53.5406 48.0653 53.4464C48.0653 53.3523 48.0468 53.2591 48.0107 53.1722C47.9747 53.0852 47.9219 53.0062 47.8554 52.9396L47.7551 52.8394L49.1353 51.4593C49.2697 51.3249 49.3452 51.1426 49.3452 50.9525C49.3452 50.7624 49.2697 50.5801 49.1353 50.4457C49.0009 50.3113 48.8185 50.2358 48.6285 50.2358C48.4384 50.2358 48.2561 50.3113 48.1217 50.4457L46.7444 51.8258L44.9949 50.0763L47.738 46.6661L49.4531 48.3841C49.5875 48.5185 49.7698 48.594 49.9599 48.594C50.15 48.594 50.3323 48.5185 50.4667 48.3841C50.6011 48.2497 50.6766 48.0674 50.6766 47.8773C50.6766 47.6872 50.6011 47.5049 50.4667 47.3705L48.6428 45.5437L51.3143 42.2251L51.4603 42.3711L51.068 42.7663C51.0014 42.8328 50.9487 42.9118 50.9126 42.9988C50.8766 43.0857 50.8581 43.1789 50.8581 43.2731C50.8581 43.3672 50.8766 43.4604 50.9126 43.5473C50.9487 43.6343 51.0014 43.7133 51.068 43.7799C51.1346 43.8464 51.2136 43.8992 51.3005 43.9352C51.3875 43.9713 51.4807 43.9898 51.5748 43.9898C51.6689 43.9898 51.7621 43.9713 51.8491 43.9352C51.9361 43.8992 52.0151 43.8464 52.0816 43.7799L52.4739 43.3876L52.8662 43.7799C52.9327 43.8464 53.0117 43.8992 53.0987 43.9352C53.1857 43.9713 53.2789 43.9898 53.373 43.9898C53.4671 43.9898 53.5603 43.9713 53.6473 43.9352C53.7342 43.8992 53.8132 43.8464 53.8798 43.7799C53.9463 43.7133 53.9991 43.6343 54.0352 43.5473C54.0712 43.4604 54.0897 43.3672 54.0897 43.2731C54.0897 43.1789 54.0712 43.0857 54.0352 42.9988C53.9991 42.9118 53.9463 42.8328 53.8798 42.7663L53.4875 42.374L56.4797 39.3789L57.4188 40.3181C57.485 40.3864 57.564 40.4408 57.6514 40.4782C57.7388 40.5156 57.8328 40.5352 57.9278 40.5359C58.0229 40.5366 58.1171 40.5183 58.205 40.4822C58.2929 40.4461 58.3728 40.3928 58.4399 40.3255C58.507 40.2582 58.56 40.1782 58.5959 40.0902C58.6318 40.0022 58.6498 39.9079 58.6488 39.8129C58.6478 39.7178 58.628 39.6239 58.5903 39.5366C58.5527 39.4494 58.4981 39.3704 58.4296 39.3045L57.416 38.2909C57.5219 38.0332 57.5219 37.7411 57.31 37.5321C57.101 37.3231 56.809 37.3231 56.5513 37.4262L55.7896 36.6645L59.2628 32.3466L60.0703 56.2668L46.8589 56.5445C42.5582 56.639 40.594 55.5481 43.2597 52.2295ZM114.009 59.4107L127.258 59.1301L127.636 70.2971C127.649 70.6683 127.805 71.02 128.072 71.2781C128.339 71.5361 128.696 71.6803 129.068 71.68H129.116C129.496 71.6666 129.855 71.5032 130.114 71.2257C130.373 70.9482 130.512 70.5793 130.499 70.1997L130.121 59.0671L135.593 58.9526C135.973 58.9484 136.335 58.7936 136.601 58.5221C136.866 58.2507 137.013 57.8849 137.009 57.5052C137.005 57.1255 136.85 56.763 136.579 56.4975C136.307 56.2319 135.941 56.0851 135.562 56.0893H135.53L130.024 56.2038L129.085 28.3953C129.042 27.0667 127.358 26.5226 126.536 27.5449L108.122 50.4285C104.543 54.8981 106.124 59.5539 114.009 59.4107ZM110.356 52.2295L111.893 50.3197L112.532 50.9582L111.893 51.5967C111.759 51.7311 111.684 51.9134 111.684 52.1035C111.684 52.2936 111.759 52.4759 111.893 52.6103C112.028 52.7448 112.21 52.8203 112.4 52.8203C112.59 52.8203 112.773 52.7448 112.907 52.6103L113.546 51.9718L114.708 53.1343C114.775 53.201 114.854 53.2539 114.941 53.29C115.028 53.3261 115.121 53.3446 115.215 53.3446C115.309 53.3446 115.402 53.3261 115.489 53.29C115.576 53.2539 115.655 53.201 115.722 53.1343C115.788 53.0681 115.841 52.9893 115.877 52.9026C115.913 52.8159 115.932 52.7229 115.932 52.629C115.932 52.535 115.913 52.442 115.877 52.3553C115.841 52.2686 115.788 52.1898 115.722 52.1236L114.556 50.9582L117.239 48.2753C117.374 48.1409 117.449 47.9586 117.449 47.7685C117.449 47.5784 117.374 47.3961 117.239 47.2617C117.105 47.1273 116.923 47.0517 116.732 47.0517C116.542 47.0517 116.36 47.1273 116.226 47.2617L113.543 49.9446L112.793 49.1944L116.412 44.699L118.685 46.9725C118.82 47.1069 119.002 47.1824 119.192 47.1824C119.382 47.1824 119.564 47.1069 119.699 46.9725C119.833 46.8381 119.909 46.6558 119.909 46.4657C119.909 46.2756 119.833 46.0933 119.699 45.9589L117.314 43.5737L120.057 40.1664L120.461 40.5701L119.905 41.1256C119.838 41.1921 119.786 41.2711 119.75 41.3581C119.714 41.4451 119.695 41.5383 119.695 41.6324C119.695 41.7265 119.714 41.8197 119.75 41.9067C119.786 41.9936 119.838 42.0726 119.905 42.1392C119.972 42.2057 120.051 42.2585 120.138 42.2946C120.225 42.3306 120.318 42.3491 120.412 42.3491C120.506 42.3491 120.599 42.3306 120.686 42.2946C120.773 42.2585 120.852 42.2057 120.919 42.1392L121.477 41.5808L121.955 42.0562C122.021 42.1244 122.1 42.1788 122.188 42.2162C122.275 42.2536 122.369 42.2732 122.464 42.2739C122.559 42.2746 122.653 42.2564 122.741 42.2202C122.829 42.1841 122.909 42.1309 122.976 42.0635C123.043 41.9962 123.096 41.9163 123.132 41.8282C123.168 41.7402 123.186 41.6459 123.185 41.5509C123.184 41.4558 123.164 41.3619 123.127 41.2747C123.089 41.1874 123.034 41.1085 122.966 41.0425L122.488 40.5672L124.521 38.5343C124.655 38.3999 124.731 38.2176 124.731 38.0275C124.731 37.8374 124.655 37.6551 124.521 37.5207C124.386 37.3862 124.204 37.3107 124.014 37.3107C123.824 37.3107 123.642 37.3862 123.507 37.5207L121.474 39.5536L120.962 39.0411L123.269 36.1749L125.113 38.0189C125.248 38.1533 125.43 38.2288 125.62 38.2288C125.81 38.2288 125.993 38.1533 126.127 38.0189C126.261 37.8845 126.337 37.7022 126.337 37.5121C126.337 37.322 126.261 37.1397 126.127 37.0053L124.174 35.0496L126.356 32.338L127.164 56.2582L113.952 56.536C109.672 56.639 107.687 55.5538 110.356 52.2295ZM77.8715 60.6505C81.8888 70.9585 91.4179 72.7567 96.4802 68.4817C100.815 64.8167 102.88 52.2353 102.762 47.0068C102.465 33.8957 92.6835 27.8827 85.1873 30.2507C81.4106 31.4418 78.2123 34.8492 76.6432 39.3646C74.49 45.5379 74.9252 53.0971 77.8715 60.6505ZM78.4786 43.8858L80.1536 45.5609L78.175 47.5394C78.1836 46.2881 78.2896 45.0684 78.4786 43.8858ZM79.6497 57.0628C79.4292 56.3556 79.2488 55.6541 79.0799 54.9525L80.3998 56.2725L79.6783 56.9941C79.6582 57.0141 79.664 57.0428 79.6497 57.0628ZM99.899 47.0698C99.9993 51.5566 98.078 63.3793 94.6305 66.297C91.1487 69.2319 83.8874 68.2011 80.5373 59.6112C80.3483 59.1244 80.1937 58.6376 80.0276 58.1509C80.2624 58.2053 80.4199 58.274 80.689 58.0048L81.4106 57.2833L82.8337 58.7064C82.9681 58.8408 83.1504 58.9163 83.3405 58.9163C83.5306 58.9163 83.7129 58.8408 83.8473 58.7064C83.9817 58.5719 84.0572 58.3896 84.0572 58.1995C84.0572 58.0095 83.9817 57.8271 83.8473 57.6927L82.4242 56.2697L85.6684 53.0255C85.7349 52.959 85.7877 52.88 85.8237 52.793C85.8597 52.706 85.8783 52.6128 85.8783 52.5187C85.8783 52.4246 85.8597 52.3314 85.8237 52.2444C85.7877 52.1575 85.7349 52.0785 85.6684 52.0119C85.6018 51.9454 85.5228 51.8926 85.4358 51.8565C85.3489 51.8205 85.2557 51.802 85.1615 51.802C85.0674 51.802 84.9742 51.8205 84.8873 51.8565C84.8003 51.8926 84.7213 51.9454 84.6547 52.0119L81.4106 55.2561L78.5587 52.4042C78.3841 51.3247 78.2581 50.2567 78.2037 49.2087C78.2094 49.2087 78.2151 49.2173 78.2237 49.2173C78.3179 49.218 78.4112 49.1998 78.4982 49.1639C78.5852 49.128 78.6642 49.0751 78.7305 49.0083L81.1672 46.5716L83.8158 49.2202C83.9502 49.3546 84.1325 49.4301 84.3226 49.4301C84.5127 49.4301 84.695 49.3546 84.8294 49.2202C84.9638 49.0858 85.0393 48.9035 85.0393 48.7134C85.0393 48.5233 84.9638 48.341 84.8294 48.2066L82.1808 45.558L86.4014 41.3375L88.1909 43.127C88.2571 43.1953 88.3361 43.2497 88.4235 43.2871C88.5109 43.3245 88.6049 43.3441 88.6999 43.3448C88.7949 43.3455 88.8892 43.3272 88.9771 43.2911C89.065 43.255 89.1449 43.2017 89.212 43.1344C89.2791 43.0671 89.3321 42.9871 89.368 42.8991C89.4039 42.8111 89.4218 42.7168 89.4209 42.6218C89.4199 42.5267 89.4001 42.4328 89.3624 42.3455C89.3248 42.2583 89.2701 42.1794 89.2017 42.1134L87.1487 40.0604C87.1172 39.9402 87.1 39.8113 87.0055 39.7168C86.911 39.6223 86.7822 39.6052 86.6619 39.5737L82.3927 35.3045C83.475 34.2107 84.7149 33.3946 86.0492 32.9737H86.052L86.6934 33.618L84.7464 35.565C84.6119 35.6994 84.5364 35.8817 84.5364 36.0718C84.5364 36.2619 84.6119 36.4442 84.7464 36.5786C84.8808 36.713 85.0631 36.7885 85.2532 36.7885C85.4433 36.7885 85.6256 36.713 85.76 36.5786L87.707 34.6316L89.2303 36.1549L88.6748 36.7103C88.5404 36.8448 88.4649 37.0271 88.4649 37.2171C88.4649 37.4072 88.5404 37.5895 88.6748 37.724C88.8092 37.8584 88.9915 37.9339 89.1816 37.9339C89.3717 37.9339 89.554 37.8584 89.6884 37.724L90.2439 37.1685L91.9104 38.8349C91.9769 38.9016 92.0559 38.9545 92.1428 38.9906C92.2298 39.0266 92.323 39.0452 92.4172 39.0452C92.5113 39.0452 92.6046 39.0266 92.6915 38.9906C92.7785 38.9545 92.8575 38.9016 92.924 38.8349C92.9906 38.7687 93.0434 38.6899 93.0795 38.6032C93.1155 38.5165 93.1341 38.4235 93.1341 38.3295C93.1341 38.2356 93.1155 38.1426 93.0795 38.0559C93.0434 37.9692 92.9906 37.8904 92.924 37.8242L91.2576 36.1577L93.05 34.3653C93.1588 34.2565 93.1874 34.1133 93.2132 33.973C97.8689 36.5414 99.7816 41.8414 99.899 47.0698ZM89.5252 32.7618C90.3585 32.8678 91.186 33.0682 91.9991 33.3918L90.2439 35.147L88.7206 33.6237L89.4852 32.8592C89.5109 32.8334 89.5023 32.7905 89.5252 32.7618ZM79.3461 40.3067C79.8615 38.8263 80.5831 37.5092 81.4478 36.3896L85.3877 40.3296L81.1672 44.5501L78.805 42.1879C78.9596 41.5493 79.1314 40.9166 79.3461 40.3067C79.3433 40.3095 79.3433 40.3067 79.3461 40.3067ZM111.421 101.688H65.3417C64.962 101.688 64.5978 101.838 64.3293 102.107C64.0608 102.375 63.91 102.74 63.91 103.119C63.91 103.499 64.0608 103.863 64.3293 104.132C64.5978 104.4 64.962 104.551 65.3417 104.551H111.424C111.612 104.551 111.798 104.514 111.972 104.441C112.145 104.369 112.303 104.264 112.436 104.131C112.569 103.998 112.674 103.84 112.746 103.666C112.817 103.492 112.854 103.306 112.854 103.118C112.854 102.93 112.817 102.744 112.745 102.57C112.672 102.396 112.567 102.239 112.434 102.106C112.301 101.973 112.143 101.868 111.969 101.796C111.795 101.724 111.609 101.687 111.421 101.688ZM43.0278 20.9048H49.8396V24.7531C49.8396 24.943 49.9151 25.125 50.0493 25.2593C50.1835 25.3935 50.3656 25.4689 50.5555 25.4689C50.7453 25.4689 50.9274 25.3935 51.0616 25.2593C51.1959 25.125 51.2713 24.943 51.2713 24.7531V20.9048H58.6558V23.688C58.6558 23.8778 58.7312 24.0599 58.8655 24.1941C58.9997 24.3284 59.1818 24.4038 59.3716 24.4038C59.5615 24.4038 59.7436 24.3284 59.8778 24.1941C60.012 24.0599 60.0875 23.8778 60.0875 23.688V20.9048H65.754V23.8598C65.754 24.0496 65.8294 24.2317 65.9636 24.3659C66.0979 24.5002 66.2799 24.5756 66.4698 24.5756C66.6596 24.5756 66.8417 24.5002 66.976 24.3659C67.1102 24.2317 67.1856 24.0496 67.1856 23.8598V20.9048H76.0877C76.2775 20.9048 76.4596 20.8294 76.5939 20.6952C76.7281 20.5609 76.8035 20.3788 76.8035 20.189C76.8035 19.9991 76.7281 19.8171 76.5939 19.6828C76.4596 19.5486 76.2775 19.4732 76.0877 19.4732H67.1856V18.6829C67.1856 18.493 67.1102 18.311 66.976 18.1767C66.8417 18.0425 66.6596 17.9671 66.4698 17.9671C66.2799 17.9671 66.0979 18.0425 65.9636 18.1767C65.8294 18.311 65.754 18.493 65.754 18.6829V19.4732H60.0875V17.1768C60.0875 16.9869 60.012 16.8049 59.8778 16.6706C59.7436 16.5364 59.5615 16.4609 59.3716 16.4609C59.1818 16.4609 58.9997 16.5364 58.8655 16.6706C58.7312 16.8049 58.6558 16.9869 58.6558 17.1768V19.4732H51.2713V16.962C51.2713 16.7722 51.1959 16.5901 51.0616 16.4559C50.9274 16.3216 50.7453 16.2462 50.5555 16.2462C50.3656 16.2462 50.1835 16.3216 50.0493 16.4559C49.9151 16.5901 49.8396 16.7722 49.8396 16.962V19.4732H43.0278C42.838 19.4732 42.6559 19.5486 42.5216 19.6828C42.3874 19.8171 42.312 19.9991 42.312 20.189C42.312 20.3788 42.3874 20.5609 42.5216 20.6952C42.6559 20.8294 42.838 20.9048 43.0278 20.9048ZM41.1495 83.4082C41.2839 83.5426 41.4662 83.6181 41.6563 83.6181C41.8464 83.6181 42.0287 83.5426 42.1631 83.4082C42.2975 83.2738 42.373 83.0915 42.373 82.9014C42.373 82.7113 42.2975 82.529 42.1631 82.3946L39.7379 79.9694L42.5983 77.1089L44.3965 78.9071C44.4626 78.9753 44.5417 79.0298 44.6291 79.0671C44.7164 79.1045 44.8104 79.1241 44.9054 79.1248C45.0005 79.1255 45.0947 79.1073 45.1826 79.0711C45.2706 79.035 45.3504 78.9818 45.4175 78.9145C45.4846 78.8472 45.5377 78.7672 45.5735 78.6791C45.6094 78.5911 45.6274 78.4968 45.6264 78.4018C45.6255 78.3068 45.6056 78.2129 45.568 78.1256C45.5303 78.0383 45.4757 77.9594 45.4072 77.8935L43.6091 76.0953L46.8704 72.834C46.9388 72.768 46.9935 72.6891 47.0311 72.6018C47.0687 72.5146 47.0886 72.4207 47.0896 72.3256C47.0905 72.2306 47.0726 72.1363 47.0367 72.0483C47.0008 71.9603 46.9478 71.8803 46.8807 71.813C46.8136 71.7457 46.7337 71.6924 46.6458 71.6563C46.5579 71.6202 46.4636 71.6019 46.3686 71.6026C46.2736 71.6033 46.1796 71.6229 46.0922 71.6603C46.0048 71.6977 45.9258 71.7521 45.8596 71.8203L42.5983 75.0817L41.599 74.0824C41.5329 74.0141 41.4538 73.9597 41.3664 73.9223C41.279 73.8849 41.1851 73.8653 41.09 73.8646C40.995 73.8639 40.9008 73.8822 40.8129 73.9183C40.7249 73.9544 40.6451 74.0077 40.578 74.075C40.5109 74.1423 40.4578 74.2223 40.4219 74.3103C40.3861 74.3983 40.3681 74.4926 40.3691 74.5876C40.37 74.6827 40.3899 74.7766 40.4275 74.8639C40.4652 74.9511 40.5198 75.03 40.5883 75.096L41.5876 76.0953L38.73 78.9557L36.8717 77.0975C36.8057 77.029 36.7268 76.9743 36.6395 76.9367C36.5523 76.8991 36.4584 76.8792 36.3633 76.8783C36.2683 76.8773 36.174 76.8953 36.086 76.9311C35.998 76.967 35.918 77.0201 35.8507 77.0872C35.7834 77.1543 35.7301 77.2341 35.694 77.322C35.6579 77.41 35.6396 77.5042 35.6403 77.5992C35.641 77.6943 35.6606 77.7882 35.698 77.8756C35.7354 77.963 35.7898 78.0421 35.8581 78.1082L37.7163 79.9694L34.7843 82.9014C34.6499 83.0358 34.5744 83.2181 34.5744 83.4082C34.5744 83.5983 34.6499 83.7806 34.7843 83.915C34.9187 84.0494 35.101 84.1249 35.2911 84.1249C35.4812 84.1249 35.6635 84.0494 35.7979 83.915L38.73 80.983L41.1495 83.4082ZM41.2669 102.008L38.2976 104.978L35.9755 102.655L36.3477 102.283C36.4161 102.217 36.4708 102.138 36.5084 102.051C36.546 101.964 36.5659 101.87 36.5669 101.775C36.5678 101.68 36.5499 101.586 36.514 101.498C36.4781 101.409 36.4251 101.329 36.358 101.262C36.2909 101.195 36.211 101.142 36.1231 101.105C36.0352 101.069 35.9409 101.051 35.8459 101.052C35.7509 101.053 35.6569 101.072 35.5695 101.11C35.4821 101.147 35.4031 101.201 35.3369 101.27L34.9647 101.642L34.289 100.966C34.1545 100.832 33.9722 100.756 33.7822 100.756C33.5921 100.756 33.4098 100.832 33.2753 100.966C33.1409 101.1 33.0654 101.283 33.0654 101.473C33.0654 101.663 33.1409 101.845 33.2753 101.98L33.9511 102.655L30.0169 106.59L27.1564 103.732L30.6325 100.256C30.701 100.19 30.7556 100.111 30.7932 100.024C30.8309 99.9366 30.8507 99.8427 30.8517 99.7476C30.8527 99.6526 30.8347 99.5583 30.7988 99.4703C30.7629 99.3823 30.7099 99.3023 30.6428 99.235C30.5757 99.1677 30.4958 99.1144 30.4079 99.0783C30.32 99.0422 30.2258 99.0239 30.1307 99.0246C30.0357 99.0253 29.9417 99.0449 29.8543 99.0823C29.7669 99.1197 29.6879 99.1741 29.6217 99.2423L26.1457 102.718L25.8994 102.472C25.765 102.338 25.5827 102.262 25.3926 102.262C25.2025 102.262 25.0202 102.338 24.8858 102.472C24.7514 102.607 24.6759 102.789 24.6759 102.979C24.6759 103.169 24.7514 103.351 24.8858 103.486L25.1321 103.732L21.6617 107.202C21.5273 107.337 21.4518 107.519 21.4518 107.709C21.4518 107.899 21.5273 108.082 21.6617 108.216C21.7961 108.35 21.9784 108.426 22.1685 108.426C22.3586 108.426 22.5409 108.35 22.6753 108.216L26.1457 104.746L29.0061 107.603L27.6833 108.926C27.6167 108.993 27.5639 109.072 27.5279 109.159C27.4919 109.246 27.4734 109.339 27.4734 109.433C27.4734 109.623 27.5489 109.805 27.6833 109.94C27.8177 110.074 28 110.15 28.1901 110.15C28.3802 110.15 28.5625 110.074 28.6969 109.94L30.0197 108.617L33.3212 111.915C33.4556 112.05 33.6379 112.125 33.828 112.125C34.0181 112.125 34.2004 112.05 34.3348 111.915C34.4692 111.781 34.5447 111.599 34.5447 111.409C34.5447 111.219 34.4692 111.036 34.3348 110.902L31.0334 107.603L34.9676 103.669L37.2897 105.991L35.4314 107.849C35.3588 107.914 35.3002 107.993 35.2592 108.082C35.2182 108.17 35.1957 108.266 35.1929 108.363C35.1902 108.46 35.2074 108.557 35.2434 108.648C35.2794 108.738 35.3335 108.82 35.4023 108.889C35.4712 108.958 35.5534 109.012 35.6438 109.048C35.7343 109.084 35.8312 109.101 35.9285 109.099C36.0259 109.096 36.1216 109.073 36.2099 109.032C36.2983 108.991 36.3773 108.933 36.4422 108.86L38.3005 107.002L39.6061 108.308C39.7406 108.442 39.9229 108.518 40.1129 108.518C40.303 108.518 40.4853 108.442 40.6198 108.308C40.7542 108.173 40.8297 107.991 40.8297 107.801C40.8297 107.611 40.7542 107.428 40.6198 107.294L39.3141 105.988L42.2833 103.019C42.3497 102.952 42.4023 102.873 42.4381 102.786C42.4738 102.699 42.4921 102.606 42.4918 102.512C42.4916 102.418 42.4728 102.324 42.4365 102.238C42.4002 102.151 42.3472 102.072 42.2805 102.005C42.2137 101.939 42.1346 101.887 42.0475 101.851C41.9605 101.815 41.8672 101.797 41.7731 101.797C41.679 101.797 41.5858 101.816 41.499 101.852C41.4121 101.889 41.3332 101.942 41.2669 102.008Z" fill="black"/>
</svg>
